<mxfile host="app.diagrams.net" modified="2022-06-06T06:53:02.028Z" agent="5.0 (Macintosh; Intel Mac OS X 10_15_7) AppleWebKit/537.36 (KHTML, like Gecko) Chrome/102.0.5005.61 Safari/537.36" etag="2NObXixeMLvFPvUftXIx" version="19.0.0" type="github">
  <diagram id="crn--hlIMHUMHz6F5_OJ" name="Page-1">
    <mxGraphModel dx="850" dy="1698" grid="1" gridSize="10" guides="1" tooltips="1" connect="1" arrows="1" fold="1" page="1" pageScale="1" pageWidth="827" pageHeight="1169" math="0" shadow="0">
      <root>
        <mxCell id="0" />
        <mxCell id="1" parent="0" />
        <mxCell id="gGVx2WvzArmcPadPBa9t-9" value="" style="edgeStyle=orthogonalEdgeStyle;rounded=0;orthogonalLoop=1;jettySize=auto;html=1;" edge="1" parent="1">
          <mxGeometry relative="1" as="geometry">
            <mxPoint x="400" y="90" as="sourcePoint" />
            <mxPoint x="400" y="40" as="targetPoint" />
          </mxGeometry>
        </mxCell>
        <mxCell id="9kOQ5PttH7CepgaANhRz-12" value="" style="rounded=0;whiteSpace=wrap;html=1;align=left;" parent="1" vertex="1">
          <mxGeometry x="280" y="90" width="200" height="430" as="geometry" />
        </mxCell>
        <mxCell id="9kOQ5PttH7CepgaANhRz-1" value="Searcher" style="rounded=0;whiteSpace=wrap;html=1;fillColor=#f8cecc;strokeColor=#b85450;" parent="1" vertex="1">
          <mxGeometry x="320" y="130" width="120" height="40" as="geometry" />
        </mxCell>
        <mxCell id="9kOQ5PttH7CepgaANhRz-4" value="Box UI Server" style="rounded=0;whiteSpace=wrap;html=1;fillColor=#f8cecc;strokeColor=#b85450;" parent="1" vertex="1">
          <mxGeometry x="320" y="230" width="120" height="40" as="geometry" />
        </mxCell>
        <mxCell id="9kOQ5PttH7CepgaANhRz-5" value="Onebox Server" style="rounded=0;whiteSpace=wrap;html=1;fillColor=#f8cecc;strokeColor=#b85450;" parent="1" vertex="1">
          <mxGeometry x="320" y="330" width="120" height="40" as="geometry" />
        </mxCell>
        <mxCell id="9kOQ5PttH7CepgaANhRz-6" value="OneBox Data Server" style="rounded=0;whiteSpace=wrap;html=1;fillColor=#f8cecc;strokeColor=#b85450;" parent="1" vertex="1">
          <mxGeometry x="320" y="430" width="120" height="40" as="geometry" />
        </mxCell>
        <mxCell id="9kOQ5PttH7CepgaANhRz-7" value="指定类型Box的UI" style="rounded=1;whiteSpace=wrap;html=1;" parent="1" vertex="1">
          <mxGeometry x="520" y="280" width="120" height="40" as="geometry" />
        </mxCell>
        <mxCell id="9kOQ5PttH7CepgaANhRz-9" value="指定类型Box的data" style="rounded=1;whiteSpace=wrap;html=1;" parent="1" vertex="1">
          <mxGeometry x="520" y="360" width="120" height="40" as="geometry" />
        </mxCell>
        <mxCell id="9kOQ5PttH7CepgaANhRz-10" value="获取原生Searcher的返回" style="rounded=1;whiteSpace=wrap;html=1;" parent="1" vertex="1">
          <mxGeometry x="80" y="95" width="120" height="50" as="geometry" />
        </mxCell>
        <mxCell id="9kOQ5PttH7CepgaANhRz-11" value="获取模拟Searcher的返回" style="rounded=1;whiteSpace=wrap;html=1;" parent="1" vertex="1">
          <mxGeometry x="80" y="155" width="120" height="50" as="geometry" />
        </mxCell>
        <mxCell id="gGVx2WvzArmcPadPBa9t-6" value="" style="edgeStyle=orthogonalEdgeStyle;rounded=0;orthogonalLoop=1;jettySize=auto;html=1;" edge="1" parent="1" source="9kOQ5PttH7CepgaANhRz-13" target="gGVx2WvzArmcPadPBa9t-1">
          <mxGeometry relative="1" as="geometry" />
        </mxCell>
        <mxCell id="9kOQ5PttH7CepgaANhRz-13" value="结果页" style="whiteSpace=wrap;html=1;align=center;rounded=0;fillColor=#dae8fc;strokeColor=#6c8ebf;fontStyle=1" parent="1" vertex="1">
          <mxGeometry x="320" y="-80" width="120" height="40" as="geometry" />
        </mxCell>
        <mxCell id="gGVx2WvzArmcPadPBa9t-11" value="" style="edgeStyle=orthogonalEdgeStyle;rounded=0;orthogonalLoop=1;jettySize=auto;html=1;entryX=0.5;entryY=0;entryDx=0;entryDy=0;" edge="1" parent="1" source="gGVx2WvzArmcPadPBa9t-1" target="9kOQ5PttH7CepgaANhRz-12">
          <mxGeometry relative="1" as="geometry">
            <mxPoint x="380" y="80" as="targetPoint" />
          </mxGeometry>
        </mxCell>
        <mxCell id="gGVx2WvzArmcPadPBa9t-1" value="搜索服务端" style="rounded=0;whiteSpace=wrap;html=1;" vertex="1" parent="1">
          <mxGeometry x="320" width="120" height="40" as="geometry" />
        </mxCell>
        <mxCell id="gGVx2WvzArmcPadPBa9t-5" value="" style="edgeStyle=orthogonalEdgeStyle;rounded=0;orthogonalLoop=1;jettySize=auto;html=1;" edge="1" parent="1" source="gGVx2WvzArmcPadPBa9t-4" target="9kOQ5PttH7CepgaANhRz-13">
          <mxGeometry relative="1" as="geometry" />
        </mxCell>
        <mxCell id="gGVx2WvzArmcPadPBa9t-4" value="测试平台" style="rounded=0;whiteSpace=wrap;html=1;fillColor=#e1d5e7;strokeColor=#9673a6;" vertex="1" parent="1">
          <mxGeometry x="320" y="-200" width="120" height="40" as="geometry" />
        </mxCell>
        <mxCell id="gGVx2WvzArmcPadPBa9t-14" value="" style="edgeStyle=orthogonalEdgeStyle;rounded=0;orthogonalLoop=1;jettySize=auto;html=1;" edge="1" parent="1">
          <mxGeometry relative="1" as="geometry">
            <mxPoint x="400" as="sourcePoint" />
            <mxPoint x="400" y="-40" as="targetPoint" />
          </mxGeometry>
        </mxCell>
        <mxCell id="gGVx2WvzArmcPadPBa9t-15" value="" style="edgeStyle=orthogonalEdgeStyle;rounded=0;orthogonalLoop=1;jettySize=auto;html=1;exitX=0.667;exitY=0;exitDx=0;exitDy=0;exitPerimeter=0;" edge="1" parent="1" source="9kOQ5PttH7CepgaANhRz-13">
          <mxGeometry relative="1" as="geometry">
            <mxPoint x="400" y="-120" as="sourcePoint" />
            <mxPoint x="400" y="-160" as="targetPoint" />
          </mxGeometry>
        </mxCell>
      </root>
    </mxGraphModel>
  </diagram>
</mxfile>
